<svg xmlns="http://www.w3.org/2000/svg" width="24" height="24" viewBox="0 0 24 24">
    <path fill="#94A4BA" fill-rule="evenodd" d="M13.587 18.396V8.266l3.065 3.117c.421.429 1.11.429 1.532 0 .421-.428.421-1.13 0-1.558l-4.916-5c-.102-.104-.217-.182-.345-.234-.128-.052-.268-.091-.421-.091-.14 0-.281.026-.422.09-.127.053-.255.144-.345.235l-4.916 5c-.217.22-.319.493-.319.779 0 .286.102.571.32.78.42.428 1.11.428 1.532 0l3.064-3.118v10.13c0 .61.485 1.104 1.086 1.104.6 0 1.085-.494 1.085-1.104z"/>
</svg>
