<svg xmlns="http://www.w3.org/2000/svg" width="100" height="24" viewBox="0 0 100 24">
    <path fill="#523A84" fill-rule="evenodd" d="M12.358 4c1.193 0 2.288.346 3.148.999 2.796 2.075 6.159 5.11 6.198 5.15.916.826 1.957 1.775 2.046 3.588l.006.253v4.956c0 .917-.73 1.921-1.918 2.01l-.173.007h-7.097V14.76h-4.38v6.224H3.15c-1.271 0-2.078-.95-2.145-1.89L1 18.967V13.99c0-1.979 1.095-2.978 2.053-3.842.039-.04 3.401-3.074 6.178-5.168.86-.634 1.974-.98 3.127-.98zm-.86 16.233v.73h-.743v-.73h.743zm2.484 0v.73h-.743v-.73h.743zm-1.232 0v.73h-.743v-.73h.743zM44.32 8.93c.147 0 .27.1.302.234l.008.07v6.428c0 1.18.297 2.083.881 2.685.583.601 1.433.906 2.525.906 1.197 0 2.153-.361 2.84-1.072.64-.662.986-1.58 1.033-2.734l.005-.27V9.232c0-.143.102-.263.239-.295l.07-.008h1.275c.147 0 .27.1.302.234l.008.07v11.31c0 .143-.102.264-.239.295l-.07.008H52.29c-.146 0-.269-.1-.301-.234l-.008-.07v-1.477c-.4.535-.908.967-1.513 1.289-.754.4-1.626.603-2.59.603-1.578 0-2.843-.441-3.758-1.311-.861-.818-1.324-2-1.379-3.521l-.005-.31V9.234c0-.143.102-.263.239-.295l.07-.008h1.275zm24.057-2.542c.15 0 .277.103.31.241l.009.072V8.93h3.28c.15 0 .278.103.31.242l.01.071v.99c0 .149-.106.274-.247.306l-.073.009h-3.28v6.794c0 .65.164 1.149.487 1.48.322.33.796.497 1.412.497.311 0 .617-.05.908-.147.223-.075.426-.176.601-.3.078-.054.176-.073.267-.05.066.016.123.053.165.105l.036.057.413.828c.066.13.031.292-.083.382-.293.233-.648.417-1.058.547-.456.144-.937.217-1.43.217-1.145 0-2.043-.311-2.668-.927-.578-.567-.893-1.357-.937-2.348l-.006-.252v-6.883h-1.795c-.151 0-.278-.104-.311-.243l-.008-.071v-.99c0-.149.104-.273.245-.306l.074-.008h1.795V6.701c0-.148.105-.272.245-.305l.073-.008h1.256zM79.5 8.841c1.576 0 2.806.397 3.656 1.178.798.735 1.228 1.81 1.279 3.196l.005.281v7.048c0 .143-.102.264-.239.296l-.07.008h-1.208c-.146 0-.27-.1-.301-.235l-.009-.069v-1.182c-.352.441-.811.8-1.372 1.073-.713.348-1.572.524-2.55.524-1.349 0-2.44-.324-3.243-.961-.812-.646-1.225-1.51-1.225-2.567 0-1.028.385-1.869 1.144-2.5.702-.581 1.795-.896 3.253-.935l.318-.005h3.608v-.561c0-.956-.272-1.69-.808-2.182-.539-.494-1.345-.746-2.395-.746-.73 0-1.439.12-2.11.357-.606.213-1.141.504-1.592.865-.07.056-.16.08-.25.064-.064-.01-.123-.043-.168-.09l-.04-.05-.55-.896c-.08-.131-.05-.302.07-.398.588-.467 1.293-.836 2.096-1.097.852-.276 1.76-.416 2.701-.416zM29.583 5.084c.088 0 .17.036.23.097l.039.051 5.207 8.38 5.24-8.38c.045-.074.12-.124.204-.142l.064-.006h1.274c.114 0 .22.06.274.158.045.078.052.17.023.252l-.028.06-6.122 9.845v5.14c0 .145-.103.268-.243.3l-.072.008h-1.309c-.149 0-.273-.102-.306-.238l-.008-.07v-5.14l-6.122-9.845c-.06-.095-.061-.215-.006-.312.045-.08.12-.133.207-.151l.067-.007h1.387zm33.611 3.759c.08-.003.167.031.227.09.046.043.077.098.089.158l.006.06v1.338c0 .065-.043.12-.101.139l-.047.007h-.382c-1.197 0-2.144.364-2.816 1.08-.627.67-.967 1.606-1.013 2.786l-.005.277v5.768c0 .143-.101.262-.237.293l-.07.008h-1.279c-.145 0-.268-.099-.3-.232l-.008-.07V9.232c0-.142.102-.262.238-.293l.07-.008h1.211c.145 0 .268.1.3.232l.008.07v1.556c.369-.564.857-1.01 1.457-1.332.72-.386 1.613-.593 2.652-.613zm26.204-4.688c.144 0 .265.099.297.231l.008.069v6.196c.417-.519.949-.935 1.586-1.242.782-.377 1.69-.568 2.697-.568 1.518 0 2.745.442 3.647 1.313.846.817 1.301 1.994 1.355 3.5l.005.306v6.588c0 .141-.1.26-.235.292l-.07.008h-1.283c-.144 0-.265-.1-.297-.232l-.008-.068v-6.433c0-1.163-.296-2.06-.882-2.663-.582-.6-1.432-.905-2.524-.905-1.227 0-2.21.361-2.92 1.073-.66.661-1.018 1.573-1.066 2.714l-.005.267v5.947c0 .141-.1.26-.235.292l-.07.008h-1.283c-.144 0-.266-.1-.297-.232l-.008-.068V4.455c0-.142.1-.26.235-.292l.07-.008h1.283zm-77.02.998c-.919 0-1.779.268-2.404.749-2.737 2.055-6.06 5.053-6.1 5.091-.85.78-1.594 1.44-1.674 2.757l-.007.24v4.956c0 .286.235.787.817.857l.14.008h5.846v-5.63c0-.276.206-.521.49-.567l.097-.008h.782l.704-3.382h.742l.255-3.4h.606l.254 3.4h.743l.704 3.382h.781c.282 0 .532.202.579.48l.008.096v5.629h5.904c.657 0 .888-.502.916-.803l.003-.062V13.99c0-1.48-.782-2.19-1.681-2.997-.02-.038-3.363-3.054-6.1-5.091-.645-.48-1.505-.75-2.404-.75zm70.168 10.301h-3.563c-1.944 0-2.889.632-2.889 1.932 0 .636.238 1.122.729 1.487.496.369 1.207.556 2.115.556.867 0 1.62-.196 2.236-.584.541-.34.966-.82 1.265-1.43l.107-.234v-1.727zm-68.564 3.224v.73h-.743v-.73h.743zm-1.232 0v.73h-.743v-.73h.743zm-1.252 0v.73h-.743v-.73h.743zm0-1.576v.73h-.743v-.73h.743zm1.252 0v.73h-.743v-.73h.743zm1.232 0v.73h-.743v-.73h.743zm-2.484-1.556v.73h-.743v-.73h.743zm1.252 0v.73h-.743v-.73h.743zm1.232 0v.73h-.743v-.73h.743zm-1.271-4.17h-.665l-.47 2.23h1.604l-.469-2.23z"/>
</svg>
