<svg xmlns="http://www.w3.org/2000/svg" width="16" height="16" viewBox="0 0 16 16">
    <path fill="#94A4BA" fill-rule="evenodd" d="M8.94 8l2.863-2.858c.261-.261.261-.685 0-.946-.261-.261-.685-.261-.946 0L8 7.06 5.143 4.196c-.261-.261-.685-.261-.946 0-.261.261-.261.685 0 .946l2.864 2.857-2.864 2.858c-.126.125-.197.295-.197.473s.07.348.197.473c.125.126.295.197.473.197.177 0 .348-.07.473-.197L8 8.939l2.857 2.864c.125.126.296.197.473.197.178 0 .348-.07.473-.197.126-.125.197-.295.197-.473s-.07-.348-.197-.473L8.939 8z"/>
</svg>
