<svg xmlns="http://www.w3.org/2000/svg" width="24" height="24" viewBox="0 0 24 24">
    <path fill="#E1E8ED" d="M22.748 3.633c-.345-.493-.948-.731-1.534-.595L2.134 7.456c-.466.101-.862.441-1.035.883-.172.442-.12.935.156 1.342l4.067 5.913 3.965 5.777c.275.391.723.629 1.206.629s.948-.238 1.207-.629L22.748 5.264c.345-.493.327-1.139 0-1.631zM10.493 17.99l-1.948-2.837 2.344-1.615c.673-.458.828-1.359.362-2.005-.465-.645-1.361-.815-2.033-.356L6.89 12.774 4.857 9.817l13.358-3.092-7.722 11.265z"/>
</svg>
