<svg xmlns="http://www.w3.org/2000/svg" xmlns:xlink="http://www.w3.org/1999/xlink" width="320" height="352" viewBox="0 0 320 352">
    <defs>
        <path id="prefix__a" d="M0.221 0.522L137.879 0.522 137.879 114.748 0.221 114.748z"/>
    </defs>
    <g fill="none" fill-rule="evenodd">
        <path fill="#E9E2FA" d="M49.714 101.101c0-29.975 28.469-57.69 46.9-72.493-53.057 2.969-94.836 35.165-94.836 74.447 0 27.627 20.669 51.75 51.392 64.663 0 15.144-6.138 30.437-6.138 30.437s20.173-2.315 28.655-23.432c1.373.292 2.762.556 4.159.807-5.888-6.471-30.132-35.488-30.132-74.429" transform="translate(23 76)"/>
        <path fill="#FFF" d="M98.797 95.265s-2.92-4.116-4.787-6.297c-7.115-8.313-20.41-4.29-24.955-1.522-4.545 2.77 6.832-.277 6.89 8.952.067 10.642 4.352 15.25 9.108 18.624" transform="translate(23 76)"/>
        <path fill="#6A51A1" d="M85.051 116.205c-.237 0-.477-.07-.685-.218-8.394-5.955-9.567-13.24-9.606-19.581-.03-4.668-3.385-5.552-5.606-6.138-1.173-.31-2.187-.577-2.34-1.636-.163-1.107.956-1.789 1.624-2.196 5.142-3.13 18.944-7.035 26.474 1.764 1.88 2.196 4.732 6.211 4.852 6.38.379.534.252 1.272-.282 1.65-.535.38-1.274.252-1.652-.28-.029-.042-2.912-4.099-4.72-6.213-6.37-7.443-18.346-4.025-22.84-1.62 2.51.688 6.822 2.23 6.86 8.274.064 10.205 4.176 14.521 8.609 17.666.534.379.659 1.117.28 1.65-.232.325-.597.498-.968.498" transform="translate(23 76)"/>
        <path fill="#6A51A1" d="M92.402 102.777s-2.111-5.945-5.17-9.714c-2.626-3.236-8.53-4.017-9.067-3.617-1.179.88 1.73 3.538 1.948 5.231 1.411 10.87 6.145 15.984 6.145 15.984l6.144-7.884z" transform="translate(23 76)"/>
        <path fill="#FFF" d="M129.932 90.284s1.83-7.21 2.8-9.91c3.7-10.292 10.9-15.672 16.133-14.692 5.234.979.173 6.594 3.398 15.245 3.717 9.973 1.346 15.799-1.902 20.636" transform="translate(23 76)"/>
        <path fill="#6A51A1" d="M150.36 102.747c-.228 0-.457-.065-.66-.2-.543-.365-.688-1.1-.324-1.642 3.029-4.51 5.34-10.003 1.776-19.566-1.586-4.254-1.285-7.817-1.065-10.418.285-3.362.137-3.782-1.44-4.076-4.516-.846-11.278 4.135-14.799 13.93-.94 2.614-2.749 9.728-2.767 9.8-.161.634-.805 1.02-1.44.856-.634-.16-1.02-.804-.858-1.438.075-.296 1.855-7.296 2.833-10.018 3.058-8.507 10.224-16.814 17.469-15.456 3.861.722 3.608 3.71 3.364 6.601-.212 2.511-.476 5.636.924 9.394 3.947 10.59 1.19 16.916-2.028 21.708-.229.341-.603.525-.986.525" transform="translate(23 76)"/>
        <path fill="#6A51A1" d="M139.14 92.717s-.446-9.501 1.075-14.109c1.307-3.954 4.29-6.515 4.934-6.332 1.415.406 2.208 6.855 2.604 8.516 2.541 10.664-.069 17.121-.069 17.121l-8.544-5.196zM111.959 117.494l.424 2.254c.421 2.236 2.577 3.708 4.818 3.287l6.48-1.215c2.24-.42 3.714-2.574 3.293-4.81l-.425-2.254-7.295 1.369-7.295 1.369M98.302 144.083c-3.87 0-6.337-2.617-6.454-2.743-.443-.48-.413-1.229.07-1.672.48-.444 1.23-.412 1.674.068.093.099 2.419 2.524 5.902 1.868 4.988-.936 7.058-3.717 9.455-6.937 2.528-3.398 5.394-7.25 12.191-8.525.646-.12 1.263.303 1.384.945.12.642-.303 1.26-.947 1.382-5.884 1.104-8.236 4.263-10.726 7.61-2.468 3.315-5.02 6.744-10.92 7.851-.566.107-1.11.153-1.629.153" transform="translate(23 76)"/>
        <path fill="#6A51A1" d="M143.574 135.42c-4.815 0-8.03-2.058-10.93-3.915-3.313-2.122-6.171-3.957-11.066-3.036-.646.12-1.263-.303-1.384-.945-.12-.642.302-1.261.946-1.382 5.814-1.089 9.359 1.177 12.784 3.371 3.497 2.239 6.798 4.355 12.758 3.236 3.603-.676 4.825-2.72 4.876-2.807.325-.561 1.046-.762 1.61-.445.566.317.774 1.025.462 1.594-.069.125-1.745 3.09-6.51 3.984-1.275.24-2.452.346-3.546.346" transform="translate(23 76)"/>
        <path fill="#6A51A1" d="M100.976 137.139c-.559 0-1.057-.397-1.164-.965-.86-4.568-.084-9.144 2.186-12.886 2.264-3.733 5.724-6.204 9.742-6.958l14.59-2.737c8.342-1.562 16.565 4.789 18.33 14.165.122.642-.302 1.261-.946 1.382-.641.119-1.263-.302-1.384-.944-1.523-8.095-8.508-13.608-15.562-12.277l-14.59 2.738c-3.347.627-6.242 2.708-8.152 5.857-1.967 3.243-2.636 7.228-1.884 11.223.121.642-.303 1.26-.946 1.382-.074.013-.148.02-.22.02" transform="translate(23 76)"/>
        <path fill="#6A51A1" d="M98.169 108.294c2.689-.504 4.462.777 5.069 4.004L105 121.66c-.277-.029-.9 1.466-1.218 1.526-2.238.42-2.708 2.686-1.915 4.248-3.773 3.019-.921 3.966-.602 7.787 0 0-9.936.473-12.038-10.692-1.51-8.024 3.576-15.228 8.942-16.235" transform="translate(23 76)"/>
        <path fill="#FFF" d="M97.68 123.554c-2.852.536-5.6-1.34-6.136-4.187-.536-2.848 1.342-5.59 4.195-6.126 2.852-.535 5.599 1.34 6.135 4.188.536 2.848-1.342 5.59-4.194 6.125" transform="translate(23 76)"/>
        <path fill="#6A51A1" d="M99.057 122.359c-2.637.495-5.177-1.239-5.672-3.871-.496-2.633 1.24-5.168 3.877-5.664 2.637-.494 5.177 1.238 5.673 3.872.495 2.632-1.24 5.168-3.878 5.663" transform="translate(23 76)"/>
        <path fill="#FFF" d="M97.489 115.03c.152.807.93 1.339 1.738 1.187.808-.152 1.34-.929 1.188-1.736-.151-.806-.93-1.337-1.738-1.186-.808.151-1.34.929-1.188 1.735" transform="translate(23 76)"/>
        <path fill="#6A51A1" d="M138.907 120.284c-.156-1.538-1.367-2.987-3.325-2.62-.11.021-1.027-.605-1.127-.576l-1.936-10.284c-.617-3.277.551-5.058 3.284-5.571 5.366-1.007 12.724 3.861 14.234 11.885 2.103 11.165-7.327 14.326-7.327 14.326-1.124-3.782 1.359-5.7-3.803-7.16" transform="translate(23 76)"/>
        <path fill="#FFF" d="M141.808 115.274c2.852-.535 4.73-3.278 4.194-6.126-.536-2.847-3.283-4.722-6.136-4.187-2.852.536-4.73 3.278-4.194 6.126.536 2.847 3.283 4.722 6.136 4.187" transform="translate(23 76)"/>
        <path fill="#6A51A1" d="M142.77 114.286c2.654-.498 4.402-3.05 3.903-5.7-.499-2.65-3.055-4.396-5.71-3.898-2.654.499-4.403 3.051-3.904 5.701.5 2.65 3.056 4.395 5.71 3.897" transform="translate(23 76)"/>
        <path fill="#FFF" d="M144.012 106.09c.153.812-.383 1.594-1.197 1.747-.813.153-1.596-.382-1.75-1.194-.152-.812.384-1.595 1.197-1.747.813-.152 1.597.382 1.75 1.194" transform="translate(23 76)"/>
        <path fill="#6A51A1" d="M100.729 162.867c2.516.33 14.263 1.647 26.57-.662 15.272-2.865 24.047-7.983 25.887-9.14.735-3.051 4.845-21.324 1.98-36.548-3.199-16.987-16.603-23.411-21.498-24.453-6.77-1.44-13.082-.71-18.895.293l-.036.008c-5.435 1.101-12.199 2.472-17.868 6.582-.149.107-14.868 11.035-11.183 30.607 2.854 15.162 13.181 30.618 15.043 33.313m11.23 3.056c-6.907 0-11.758-.734-12.088-.786l-.49-.077-.29-.403c-.51-.708-12.514-17.554-15.735-34.666-3.167-16.825 6.544-28.916 12.12-32.96 6.086-4.411 13.13-5.84 18.79-6.986l.07-.014c6.08-1.05 12.662-1.807 19.826-.281 5.325 1.133 19.896 8.072 23.333 26.33 3.222 17.114-1.903 37.174-2.123 38.02l-.11.425-.363.25c-.378.262-9.467 6.436-27.163 9.756l-.219-1.162.219 1.162c-5.683 1.067-11.186 1.392-15.778 1.392" transform="translate(23 76)"/>
        <path fill="#6A51A1" d="M115.347 97.037c-.559 0-1.057-.396-1.164-.965l-.856-4.547c-.12-.642.303-1.26.946-1.381.647-.123 1.263.302 1.384.944l.857 4.548c.12.642-.303 1.26-.947 1.381-.074.014-.148.02-.22.02M107.512 98.407c-.428 0-.84-.231-1.052-.636l-1.86-3.557c-.302-.578-.077-1.293.504-1.596.579-.304 1.295-.078 1.599.502l1.858 3.557c.303.579.078 1.294-.502 1.596-.175.092-.362.134-.547.134M123.32 95.44c-.036 0-.072-.001-.109-.004-.651-.06-1.132-.635-1.072-1.286l.362-3.973c.06-.651.637-1.125 1.288-1.072.652.06 1.132.635 1.074 1.287l-.363 3.973c-.056.614-.573 1.076-1.18 1.076M100.742 142.365s13.499 4.868 23.872 2.921c8.812-1.654 19.724-11.309 19.724-11.309s-4.155 2.418-10.593-2.85c-2.778-2.273-5.238-4.705-11.185-3.99-5.945.714-7.833 3.43-9.551 5.756-6.021 8.15-10.49 8.477-12.267 9.472" transform="translate(23 76)"/>
        <path fill="#6A51A1" d="M121.271 128.505c-.559 0-1.057-.396-1.164-.965l-.919-4.879c-.12-.642.303-1.26.947-1.381.64-.121 1.263.303 1.384.945l.918 4.878c.121.642-.303 1.261-.946 1.382-.074.014-.148.02-.22.02" transform="translate(23 76)"/>
        <path fill="#FFF" d="M132.41 140.26s.732 8.152-7.202 9.517c-7.933 1.366-10.438-6.75-10.438-6.75" transform="translate(23 76)"/>
        <path fill="#6A51A1" d="M123.478 151.113c-5.839.001-8.96-4.886-9.84-7.737-.194-.625.157-1.287.783-1.48.624-.193 1.29.157 1.482.783.09.287 2.314 7.1 9.103 5.932 6.78-1.166 6.25-7.957 6.224-8.245-.059-.652.423-1.227 1.075-1.285.654-.058 1.228.423 1.286 1.073.287 3.196-1.055 9.563-8.182 10.79-.674.116-1.318.17-1.93.17" transform="translate(23 76)"/>
        <path fill="#FFF" d="M123.599 138.396L124.179 143.027" transform="translate(23 76)"/>
        <path fill="#6A51A1" d="M124.177 144.21c-.59 0-1.1-.437-1.174-1.036l-.58-4.631c-.08-.65.38-1.24 1.03-1.321.647-.08 1.241.378 1.323 1.028l.579 4.63c.08.65-.38 1.24-1.03 1.321-.049.007-.099.01-.148.01" transform="translate(23 76)"/>
        <path fill="#6A51A1" d="M104.63 29.707c-55.732 0-101.074 32.701-101.074 72.895 0 12.925 4.765 25.626 13.778 36.733 8.819 10.865 21.449 19.958 36.525 26.296.66.277 1.088.922 1.088 1.636 0 11.444-3.358 22.8-5.16 28.069 5.696-1.492 18.1-6.416 24.25-21.726.32-.802 1.172-1.252 2.02-1.076 9.252 1.967 18.866 2.964 28.573 2.964 55.732 0 101.074-32.701 101.074-72.896 0-40.194-45.342-72.895-101.074-72.895M47.032 199.478c-.55 0-1.074-.256-1.413-.698-.38-.496-.47-1.156-.238-1.737.059-.145 5.698-14.38 5.998-28.61-15.13-6.54-27.838-15.812-36.807-26.863C5.039 129.824 0 116.35 0 102.602 0 82.074 10.96 62.813 30.857 48.366c19.728-14.322 45.927-22.21 73.773-22.21 27.845 0 54.045 7.888 73.773 22.21 19.899 14.447 30.857 33.708 30.857 54.236 0 20.529-10.958 39.79-30.857 54.236-19.728 14.323-45.928 22.21-73.773 22.21-9.452 0-18.82-.922-27.87-2.743-9.063 20.584-28.677 23.064-29.525 23.162-.068.007-.136.011-.203.011" transform="translate(23 76)"/>
        <path fill="#FFF" d="M168.594 157.674s-7.613-10.57-14.741-10.57c-7.128 0-16.922 6.232-16.922 17.598 0 10.387 3.986 22.104 10.973 22.104 18.629 0 4.858-25.867 4.858-25.867" transform="translate(23 76)"/>
        <path fill="#6A51A1" d="M147.904 187.99c-7.61 0-12.158-11.84-12.158-23.288 0-12.255 10.516-18.782 18.107-18.782 7.648 0 15.379 10.612 15.704 11.063.382.53.261 1.27-.27 1.652-.533.38-1.272.26-1.655-.27-.072-.1-7.344-10.079-13.78-10.079-6.597 0-15.736 5.705-15.736 16.416 0 10.103 3.933 20.92 9.788 20.92 3.716 0 6.153-1.049 7.452-3.207 3.264-5.422-1.52-16.94-3.64-20.92-.307-.578-.088-1.294.49-1.6.578-.308 1.295-.088 1.603.489.337.633 8.195 15.582 3.58 23.25-1.74 2.89-4.93 4.355-9.485 4.355" transform="translate(23 76)"/>
        <path fill="#FFF" d="M112.672 171.63s-8.459-11.632-15.302-11.632c-6.842 0-16.245 5.983-16.245 16.895 0 9.97 2.108 20.81 11.026 20.81 16.408 0 5.066-26.898 5.066-26.898" transform="translate(23 76)"/>
        <path fill="#6A51A1" d="M92.151 198.886c-5.57 0-12.211-3.815-12.211-21.993 0-11.796 10.123-18.079 17.43-18.079 7.363 0 15.901 11.626 16.26 12.12.386.53.268 1.269-.262 1.654-.53.384-1.27.265-1.655-.263-2.257-3.1-9.232-11.144-14.343-11.144-6.314 0-15.06 5.46-15.06 15.712 0 8.954 1.707 19.627 9.841 19.627 2.936 0 4.968-.91 6.212-2.78 1.769-2.657 1.964-7.34.566-13.541-1.093-4.845-2.788-8.894-2.805-8.935-.254-.602.03-1.296.633-1.55.604-.253 1.299.03 1.553.632.292.694 7.103 17.074 2.028 24.703-1.693 2.546-4.447 3.837-8.187 3.837" transform="translate(23 76)"/>
        <path fill="#FFF" d="M205.958 2.367c37.03 0 67.05 21.794 67.05 48.679 0 18.01-13.475 33.736-33.503 42.154 0 9.873 4 19.842 4 19.842s-13.15-1.508-18.679-15.275c-5.986 1.272-12.316 1.957-18.868 1.957-37.031 0-67.051-21.794-67.051-48.678 0-26.885 30.02-48.68 67.05-48.68" transform="translate(23 76)"/>
        <g transform="translate(23 76) translate(136.907 .07)">
            <mask id="prefix__b" fill="#fff">
                <use xlink:href="#prefix__a"/>
            </mask>
            <path fill="#6A51A1" d="M87.92 95.922c.713 0 1.374.43 1.649 1.115 3.54 8.816 10.354 12.209 14.276 13.469-1.225-3.808-3.025-10.566-3.025-17.376 0-.714.428-1.359 1.088-1.635 19.994-8.405 32.415-23.93 32.415-40.519 0-25.863-29.281-46.904-65.273-46.904-35.99 0-65.272 21.041-65.272 46.904 0 25.863 29.281 46.904 65.272 46.904 6.284 0 12.508-.646 18.499-1.92.124-.025.248-.038.37-.038m18.68 18.826c-.067 0-.135-.004-.203-.012-.561-.064-13.404-1.688-19.539-15.01-5.79 1.13-11.773 1.704-17.807 1.704C31.098 101.43.221 78.797.221 50.976.221 23.156 31.098.522 69.051.522c37.951 0 68.828 22.633 68.828 50.454 0 17.728-12.797 34.237-33.484 43.315.29 9.038 3.817 17.929 3.855 18.021.232.581.142 1.24-.238 1.738-.338.443-.863.698-1.413.698" mask="url(#prefix__b)"/>
        </g>
        <path fill="#6A51A1" d="M222.533 44.718c0 1.763-1.43 3.19-3.195 3.19s-3.195-1.427-3.195-3.19c0-1.762 1.43-3.19 3.195-3.19s3.195 1.428 3.195 3.19M209.153 48.846c0 1.762-1.43 3.19-3.195 3.19s-3.196-1.428-3.196-3.19 1.431-3.19 3.196-3.19c1.764 0 3.195 1.428 3.195 3.19M195.772 50.308c0 1.762-1.43 3.19-3.195 3.19s-3.195-1.428-3.195-3.19 1.43-3.19 3.195-3.19 3.195 1.428 3.195 3.19" transform="translate(23 76)"/>
    </g>
</svg>
